<svg width="927" height="324" viewBox="0 0 927 324" fill="none" xmlns="http://www.w3.org/2000/svg">
<path fill-rule="evenodd" clip-rule="evenodd" d="M0 97.6314L0 0L38.8814 0V35.25H58.75V0L97.6314 0V97.6314H58.75V62.3814H38.8814V97.6314H0ZM31.1907 54.6907H66.4407V89.9407H89.9407V7.69069H66.4407V42.9407H31.1907V7.69069H7.69069V89.9407H31.1907V54.6907ZM103.87 97.6314V70.5H127.37V27.1314H103.87V0L189.751 0V23.5H195.99V11.75H207.74V0L315.241 0V35.25H335.11V0L373.991 0V97.6314H335.11V62.3814H315.241V97.6314H207.74V85.8814H195.99V74.1314H189.751V97.6314H103.87ZM184.24 70.5V27.1314H166.251V70.5H184.24ZM158.561 78.1907V19.4407H182.061V7.69069H111.561V19.4407H135.061V78.1907H111.561V89.9407H182.061V78.1907H158.561ZM276.36 35.25V27.1314H234.871V35.25H276.36ZM231.24 38.8814H223.121V58.75H231.24V38.8814ZM234.871 62.3814V70.5H242.99V62.3814H234.871ZM250.681 78.1907H227.181V66.4407H215.431V31.1907H227.181V19.4407H274.181V7.69069H215.431V19.4407H203.681V31.1907H191.931V66.4407H203.681V78.1907H215.431V89.9407H274.181V42.9407H238.931V54.6907H250.681V78.1907ZM307.551 54.6907H342.801V89.9407H366.301V7.69069H342.801V42.9407H307.551V7.69069H284.051V89.9407H307.551V54.6907ZM403.73 97.6314V27.1314H380.23V0L558.231 0V85.8814H546.481V97.6314H519.35V85.8814H499.481V97.6314H472.35V85.8814H460.6V27.1314H442.611V97.6314H403.73ZM434.921 19.4407H458.421V7.69069H387.921V19.4407H411.421V89.9407H434.921V19.4407ZM527.041 54.6907H515.291V7.69069L503.541 7.69069V54.6907H491.791V7.69069H468.291V78.1907H480.041V89.9407H491.791V78.1907H503.541V66.4407H515.291V78.1907H527.041V89.9407H538.791V78.1907H550.541V7.69069H527.041V54.6907ZM564.47 97.6314V70.5H587.97V27.1314H564.47V0L683.721 0V11.75H695.471V23.5H703.59V0L775.841 0V23.5H783.96V11.75H795.71V0L834.591 0V27.1314H822.841V38.8814H811.091V58.75H822.841V70.5H834.591V97.6314H783.96V85.8814H775.841V97.6314H703.59V74.1314H691.84V62.3814H683.721V97.6314H564.47ZM644.84 70.5V27.1314H626.851V70.5H644.84ZM619.161 78.1907V19.4407H642.661V7.69069H572.161V19.4407H595.661V78.1907H572.161V89.9407H642.661V78.1907H619.161ZM676.031 42.9407H687.781V54.6907H699.531V66.4407H711.281V89.9407H734.781V7.69069H711.281V42.9407H699.531V31.1907H687.781V19.4407H676.031V7.69069H652.531V89.9407H676.031V42.9407ZM768.151 66.4407H779.901V78.1907H791.651V89.9407H826.901V78.1907H815.151V66.4407H803.401V54.6907H791.651V42.9407H803.401V31.1907H815.151V19.4407H826.901V7.69069H803.401V19.4407H791.651V31.1907H779.901V42.9407H768.151V7.69069H744.651V89.9407H768.151V66.4407ZM0 210.631L0 113H38.8814V124.75H58.75V113H97.6314V136.5H103.87V124.75H115.62V113H166.251V124.75H178.001V136.5H189.751V210.631H150.87V187.131H131.001V210.631H58.75V187.131H38.8814V210.631H0ZM31.1907 155.941H42.9407V179.441H54.6907V155.941H66.4407V202.941H89.9407V120.691H66.4407V132.441H54.6907V144.191H42.9407V132.441H31.1907V120.691H7.69069V202.941H31.1907V155.941ZM123.311 179.441H158.561V202.941H182.061V144.191H170.311V132.441H158.561V120.691H123.311V132.441H111.561V144.191H99.8107V202.941H123.311V179.441ZM131.001 151.881V160H150.87V151.881H131.001ZM158.561 167.691H123.311V144.191H135.061V132.441H146.811V144.191H158.561V167.691ZM195.99 210.631V183.5H219.49V140.131H195.99V113H315.241V124.75H326.991V136.5H335.11V113H466.111V136.5H472.35V124.75H484.1V113H546.481V124.75H558.231V136.5H564.47V124.75H576.22V113H626.851V124.75H638.601V136.5H644.84V113H683.721V124.75H703.59V113H822.841V124.75H829.08V113H926.711V140.131H867.961V148.25H914.961V175.381H867.961V210.631H829.08V175.381H822.841V187.131H775.841V210.631H703.59V187.131H683.721V210.631H611.47V187.131H591.601V210.631H552.72V198.881H546.481V210.631H484.1V198.881H472.35V187.131H466.111V210.631H335.11V187.131H323.36V175.381H315.241V210.631H195.99ZM276.36 183.5V140.131H258.371V183.5H276.36ZM250.681 191.191V132.441H274.181V120.691H203.681V132.441H227.181V191.191H203.681V202.941H274.181V191.191H250.681ZM307.551 155.941H319.301V167.691H331.051V179.441H342.801V202.941H366.301V120.691H342.801V155.941H331.051V144.191H319.301V132.441H307.551V120.691H284.051V202.941H307.551V155.941ZM460.6 183.5V140.131H407.361V148.25H454.361V175.381H407.361V183.5H460.6ZM399.671 191.191V167.691H446.671V155.941H399.671V132.441H458.421V120.691H376.171V202.941H458.421V191.191H399.671ZM552.72 171.75V151.881H519.35V140.131H511.231V151.881H499.481V171.75H511.231V183.5H519.35V171.75H552.72ZM503.541 191.191V179.441H491.791V144.191H503.541V132.441H527.041V144.191H550.541V132.441H538.791V120.691H491.791V132.441H480.041V144.191H468.291V179.441H480.041V191.191H491.791V202.941H538.791V191.191H550.541V179.441H527.041V191.191H503.541ZM583.911 179.441H619.161V202.941H642.661V144.191H630.911V132.441H619.161V120.691H583.911V132.441H572.161V144.191H560.411V202.941H583.911V179.441ZM676.031 155.941H687.781V179.441H699.531V155.941H711.281V202.941H734.781V120.691H711.281V132.441H699.531V144.191H687.781V132.441H676.031V120.691H652.531V202.941H676.031V155.941ZM768.151 179.441H815.151V167.691H826.901V132.441H815.151V120.691H744.651V202.941H768.151V179.441ZM860.271 167.691H907.271V155.941H860.271V132.441H919.021V120.691H836.771V202.941H860.271V167.691ZM591.601 151.881V160H611.47V151.881H591.601ZM619.161 167.691H583.911V144.191H595.661V132.441H607.411V144.191H619.161V167.691ZM803.401 167.691H768.151V132.441H803.401V167.691ZM795.71 140.131H775.841V160H795.71V140.131ZM11.75 323.631V311.881H0L0 284.75H11.75V276.631H0L0 237.75H11.75V226H85.8814V237.75H92.12V226H270.121V237.75H276.36V226H315.241V261.25H335.11V226H546.481V237.75H558.231V288.381H546.481V296.5H558.231V323.631H507.6V311.881H499.481V323.631H368.48V288.381H362.241V300.131H350.491V311.881H338.741V323.631H311.61V311.881H299.86V300.131H288.11V288.381H270.121V296.5H281.871V323.631H231.24V311.881H223.121V323.631H92.12V311.881H85.8814V323.631H11.75ZM92.12 273V264.881H85.8814V273H92.12ZM58.75 261.25V253.131H38.8814V261.25H58.75ZM31.1907 268.941V245.441H66.4407V257.191H89.9407V245.441H78.1907V233.691H19.4407V245.441H7.69069V268.941H19.4407V280.691H66.4407V304.191H31.1907V292.441H7.69069V304.191H19.4407V315.941H78.1907V304.191H89.9407V280.691H78.1907V268.941H31.1907ZM38.8814 296.5H58.75V288.381H38.8814V296.5ZM184.24 296.5V253.131H131.001V261.25H178.001V288.381H131.001V296.5H184.24ZM123.311 304.191V280.691H170.311V268.941H123.311V245.441H182.061V233.691H99.8107V315.941H182.061V304.191H123.311ZM215.431 292.441H227.181V304.191H238.931V315.941H274.181V304.191H262.431V292.441H250.681V280.691H274.181V245.441H262.431V233.691H191.931V315.941H215.431V292.441ZM460.6 296.5V253.131H407.361V261.25H454.361V288.381H407.361V296.5H460.6ZM399.671 304.191V280.691H446.671V268.941H399.671V245.441H458.421V233.691H376.171V315.941H458.421V304.191H399.671ZM491.791 292.441H503.541V304.191H515.291V315.941H550.541V304.191H538.791V292.441H527.041V280.691H550.541V245.441H538.791V233.691H468.291V315.941H491.791V292.441ZM342.801 268.941H331.051V280.691H319.301V268.941H307.551V233.691H284.051V280.691H295.801V292.441H307.551V304.191H319.301V315.941H331.051V304.191H342.801V292.441H354.551V280.691H366.301V233.691H342.801V268.941ZM231.24 261.25H242.99V253.131H223.121V273H231.24V261.25ZM215.431 280.691V245.441H250.681V268.941H238.931V280.691H215.431ZM507.6 261.25H519.35V253.131H499.481V273H507.6V261.25ZM491.791 280.691V245.441H527.041V268.941H515.291V280.691H491.791Z" fill="black"/>
</svg>
