<?xml version="1.0" standalone="no"?>
<!DOCTYPE svg PUBLIC "-//W3C//DTD SVG 20010904//EN"
 "http://www.w3.org/TR/2001/REC-SVG-20010904/DTD/svg10.dtd">
<svg version="1.0" xmlns="http://www.w3.org/2000/svg"
 width="700.000000pt" height="700.000000pt" viewBox="0 0 700.000000 700.000000"
 preserveAspectRatio="xMidYMid meet">
<metadata>
Created by potrace 1.11, written by Peter Selinger 2001-2013
</metadata>
<g transform="translate(0.000000,700.000000) scale(0.100000,-0.100000)"
fill="#000000" stroke="none">
<path d="M870 6635 c-240 -30 -571 -118 -735 -196 -84 -40 -127 -97 -131 -173
-7 -151 109 -618 211 -851 154 -351 326 -599 545 -785 36 -30 67 -57 70 -60
19 -19 140 -95 198 -125 56 -29 69 -40 64 -53 -4 -10 -28 -60 -53 -112 -26
-52 -59 -124 -74 -160 -15 -36 -31 -73 -36 -82 -10 -19 -10 -20 -83 -223 -77
-213 -168 -548 -201 -740 -26 -154 -35 -210 -40 -275 -4 -41 -9 -84 -12 -95
-5 -26 -5 -414 0 -440 3 -11 8 -49 12 -85 10 -93 41 -242 69 -335 178 -597
626 -1026 1326 -1270 204 -71 489 -138 715 -170 23 -3 50 -7 60 -9 11 -2 52
-7 90 -11 39 -3 84 -8 100 -10 200 -26 900 -26 1034 0 9 1 52 6 96 9 44 4 87
9 95 11 8 2 40 7 70 10 140 17 360 61 529 106 551 147 997 423 1255 774 83
113 93 129 145 227 115 215 191 480 217 753 12 132 7 403 -11 540 -2 17 -7 53
-10 80 -8 63 -15 112 -21 139 -2 11 -7 37 -10 56 -3 19 -12 62 -19 95 -8 33
-16 72 -19 87 -16 93 -162 578 -196 653 -5 11 -29 70 -54 131 -34 84 -120 271
-164 355 -1 3 23 18 54 34 54 28 202 123 229 148 7 6 35 30 61 52 61 52 161
155 216 225 62 77 118 158 118 169 0 5 4 11 9 13 24 9 170 302 230 463 52 137
133 419 146 509 2 12 9 48 15 81 20 109 21 194 0 234 -41 82 -88 110 -298 180
-174 57 -369 103 -542 126 -83 11 -414 14 -490 4 -261 -33 -479 -108 -675
-232 -44 -28 -82 -54 -85 -57 -3 -3 -30 -25 -60 -50 -122 -100 -251 -251 -347
-408 l-48 -78 -125 42 c-172 59 -307 89 -530 119 -102 13 -501 14 -560 1 -14
-3 -46 -8 -72 -10 -90 -11 -124 -18 -259 -51 -74 -19 -178 -49 -231 -68 l-96
-34 -13 26 c-27 52 -132 204 -187 269 -246 294 -575 470 -979 526 -123 17
-376 17 -513 1z"/>
</g>
</svg>
